#N canvas 336 252 672 404 12;
#X obj 144 173 osc~ 440;
#X obj 141 282 *~ 0.25;
#X obj 145 322 dac~;
#X floatatom 147 105 5 0 0 0 - - - 0;
#X obj 229 136 * 2;
#X floatatom 238 178 5 0 0 0 - - - 0;
#X obj 238 213 osc~;
#X obj 238 254 *~ 0.75;
#X floatatom 308 178 5 0 0 0 - - - 0;
#X obj 308 213 osc~;
#X floatatom 386 180 5 0 0 0 - - - 0;
#X obj 386 215 osc~;
#X obj 299 136 * 1.5;
#X obj 377 138 * 3;
#X obj 386 256 *~ 0.5;
#X obj 308 254 *~ 0.5;
#X obj 143 15 loadbang;
#X msg 145 46 440;
#X connect 0 0 1 0;
#X connect 1 0 2 0;
#X connect 3 0 4 0;
#X connect 3 0 0 0;
#X connect 3 0 12 0;
#X connect 3 0 13 0;
#X connect 4 0 5 0;
#X connect 5 0 6 0;
#X connect 6 0 7 0;
#X connect 7 0 1 0;
#X connect 8 0 9 0;
#X connect 9 0 15 0;
#X connect 10 0 11 0;
#X connect 11 0 14 0;
#X connect 12 0 8 0;
#X connect 13 0 10 0;
#X connect 14 0 1 0;
#X connect 15 0 1 0;
#X connect 16 0 17 0;
#X connect 17 0 3 0;
