#N canvas 399 312 450 300 12;
#X obj 67 83 noise~;
#X obj 77 116 *~ 0.5;
#X obj 89 171 *~;
#X obj 167 24 bng 19 250 50 0 empty empty empty 0 -10 0 12 #fcfcfc #000000 #000000;
#X msg 168 65 1 1000;
#X obj 271 34 delay 1000;
#X obj 271 68 bng 19 250 50 0 empty empty empty 0 -10 0 12 #fcfcfc #000000 #000000;
#X msg 269 103 0.5 1500;
#X obj 359 95 delay 3000;
#X obj 363 132 bng 19 250 50 0 empty empty empty 0 -10 0 12 #fcfcfc #000000 #000000;
#X msg 365 162 0 1000;
#X obj 90 217 *~ 0.25;
#X obj 98 252 dac~;
#X obj 179 138 line~;
#X connect 0 0 1 0;
#X connect 1 0 2 0;
#X connect 2 0 11 0;
#X connect 3 0 4 0;
#X connect 3 0 5 0;
#X connect 4 0 13 0;
#X connect 5 0 6 0;
#X connect 6 0 7 0;
#X connect 6 0 8 0;
#X connect 7 0 13 0;
#X connect 8 0 9 0;
#X connect 9 0 10 0;
#X connect 10 0 13 0;
#X connect 11 0 12 0;
#X connect 11 0 12 1;
#X connect 13 0 2 1;
