#N canvas 0 25 1440 847 12;
#X obj 82 58 loadbang;
#X obj 151 58 loadbang;
#X obj 82 202 /;
#X floatatom 82 238 5 0 0 0 - - - 0;
#X obj 151 155 t b f;
#X msg 82 88 60000;
#X msg 151 89 60;
#X floatatom 151 122 5 0 0 0 - - - 0;
#X obj 82 271 send 4th_time;
#X text 129 22 BPM;
#X text 96 335 Clock Multiplication;
#X obj 92 394 receive ON;
#X obj 206 392 receive 4th_time;
#X obj 207 443 * 4;
#X obj 136 531 metro;
#X obj 215 529 send whole_time;
#X floatatom 205 488 5 0 0 0 - - - 0;
#X obj 134 569 bng 19 250 50 0 empty empty empty 0 -10 0 12 #fcfcfc #000000 #000000;
#X obj 132 608 send whole_note;
#X obj 357 397 receive ON;
#X obj 471 395 receive 4th_time;
#X obj 401 534 metro;
#X floatatom 470 491 5 0 0 0 - - - 0;
#X obj 399 572 bng 19 250 50 0 empty empty empty 0 -10 0 12 #fcfcfc #000000 #000000;
#X obj 472 446 * 1;
#X obj 397 611 send 4th_note;
#X obj 293 56 send ON;
#X obj 294 21 tgl 19 0 empty empty empty 0 -10 0 12 #fcfcfc #000000 #000000 0 1;
#X obj 693 51 receive On;
#X obj 597 92 loadbang;
#X obj 693 89 sel 0;
#X obj 694 129 bng 19 250 50 0 empty empty empty 0 -10 0 12 #fcfcfc #000000 #000000;
#X msg 694 166 -1;
#X obj 767 149 receive whole_note;
#X obj 767 189 bng 19 250 50 0 empty empty empty 0 -10 0 12 #fcfcfc #000000 #000000;
#X obj 764 231 int 1;
#X obj 877 273 + 1;
#X floatatom 767 274 5 0 0 0 - - - 0;
#X obj 770 309 % 2;
#X obj 772 349 + 1;
#X obj 770 386 sel 1;
#X obj 660 394 receive ON;
#X obj 661 429 sel 0;
#X obj 722 430 loadbang;
#X msg 722 468 1;
#X obj 810 451 bng 19 250 50 0 empty empty empty 0 -10 0 12 #fcfcfc #000000 #000000;
#X obj 810 497 tgl 19 0 empty empty empty 0 -10 0 12 #fcfcfc #000000 #000000 0 1;
#X obj 810 529 send Chord;
#X obj 994 46 r Chord;
#X obj 994 89 tgl 19 0 empty empty empty 0 -10 0 12 #fcfcfc #000000 #000000 0 1;
#X obj 993 124 sel 0;
#X obj 994 159 bng 19 250 50 0 empty empty empty 0 -10 0 12 #fcfcfc #000000 #000000;
#X obj 1061 159 bng 19 250 50 0 empty empty empty 0 -10 0 12 #fcfcfc #000000 #000000;
#X msg 994 210 130.81;
#X msg 1064 211 87.31;
#X text 1080 186 F;
#X text 1010 186 C;
#X floatatom 997 259 5 0 0 0 - - - 0;
#X obj 997 297 phasor~;
#X obj 997 345 lop~ 100;
#X obj 998 386 *~;
#X obj 1000 427 send~ Bass;
#X text 1018 15 Bass;
#X text 1247 77 Envelope;
#X obj 1190 149 receive ON;
#X obj 1316 148 receive whole_time;
#X obj 1316 186 * 2;
#X obj 1190 190 sel 1;
#X obj 1190 227 bng 19 250 50 0 empty empty empty 0 -10 0 12 #fcfcfc #000000 #000000;
#X floatatom 1314 222 5 0 0 0 - - - 0;
#X obj 1313 263 - 100;
#X obj 1269 307 delay;
#X msg 1239 347 0 100;
#X msg 1191 308 1 500;
#X obj 1382 239 receive ON;
#X obj 1382 276 sel 0;
#X obj 1381 314 delay 5;
#X text 1110 460 Ambiant Pad Melody;
#X obj 1085 500 r whole_note;
#X obj 1086 535 bng 19 250 50 0 empty empty empty 0 -10 0 12 #fcfcfc #000000 #000000;
#X obj 1085 567 Chords_Scales;
#X floatatom 1086 598 5 0 0 0 - - - 0;
#X obj 1088 697 phasor~;
#X floatatom 1154 665 5 0 0 0 - - - 0;
#X obj 1090 741 lop~ 100;
#X obj 1239 543 bng 19 250 50 0 empty empty empty 0 -10 0 12 #fcfcfc #000000 #000000;
#X text 1310 483 Envelope;
#X obj 1291 512 receive whole_time;
#X obj 1342 542 receive ON;
#X obj 1343 584 sel 0;
#X floatatom 1290 586 5 0 0 0 - - - 0;
#X obj 1290 620 - 500;
#X obj 1343 656 delay 5;
#X msg 1288 708 0 500;
#X obj 1259 651 delay;
#X obj 1091 779 *~ 0.5;
#X obj 1090 810 send~ Ambient_Pad;
#X obj 513 611 receive~ Bass;
#X obj 621 611 receive~ Ambient_Pad;
#X obj 781 611 loadbang;
#X obj 856 612 loadbang;
#X obj 930 614 loadbang;
#X obj 661 719 freeverb~;
#X msg 782 639 1;
#X msg 856 641 0.5;
#X msg 932 642 0.95;
#X msg 781 673 wet \$1;
#X msg 855 675 dry \$1;
#X msg 920 676 roomsize \$1;
#X obj 662 763 *~ 0.5;
#X obj 723 762 *~ 0.5;
#X obj 663 798 dac~;
#X msg 1237 705 1 500;
#X obj 1161 771 *~;
#X obj 1232 739 line~;
#X obj 1154 631 * 1;
#X obj 1152 696 osc~;
#X obj 1183 395 line~;
#X floatatom 1032 659 5 0 0 0 - - - 0;
#X obj 1030 690 osc~;
#X obj 1032 625 * 1.001;
#X connect 0 0 5 0;
#X connect 1 0 6 0;
#X connect 2 0 3 0;
#X connect 3 0 8 0;
#X connect 4 0 2 0;
#X connect 4 1 2 1;
#X connect 5 0 2 0;
#X connect 6 0 7 0;
#X connect 7 0 4 0;
#X connect 11 0 14 0;
#X connect 12 0 13 0;
#X connect 13 0 16 0;
#X connect 14 0 17 0;
#X connect 16 0 14 1;
#X connect 16 0 15 0;
#X connect 17 0 18 0;
#X connect 19 0 21 0;
#X connect 20 0 24 0;
#X connect 21 0 23 0;
#X connect 22 0 21 1;
#X connect 23 0 25 0;
#X connect 24 0 22 0;
#X connect 27 0 26 0;
#X connect 28 0 30 0;
#X connect 29 0 31 0;
#X connect 30 0 31 0;
#X connect 31 0 32 0;
#X connect 32 0 35 0;
#X connect 33 0 34 0;
#X connect 34 0 35 0;
#X connect 35 0 36 0;
#X connect 35 0 37 0;
#X connect 36 0 35 1;
#X connect 37 0 38 0;
#X connect 38 0 39 0;
#X connect 39 0 40 0;
#X connect 40 0 45 0;
#X connect 41 0 42 0;
#X connect 42 0 44 0;
#X connect 43 0 44 0;
#X connect 44 0 46 0;
#X connect 45 0 46 0;
#X connect 46 0 47 0;
#X connect 48 0 49 0;
#X connect 49 0 50 0;
#X connect 50 0 51 0;
#X connect 50 1 52 0;
#X connect 51 0 53 0;
#X connect 52 0 54 0;
#X connect 53 0 57 0;
#X connect 54 0 57 0;
#X connect 57 0 58 0;
#X connect 58 0 59 0;
#X connect 59 0 60 0;
#X connect 60 0 61 0;
#X connect 64 0 67 0;
#X connect 65 0 66 0;
#X connect 66 0 69 0;
#X connect 67 0 68 0;
#X connect 68 0 73 0;
#X connect 69 0 70 0;
#X connect 70 0 71 0;
#X connect 71 0 72 0;
#X connect 72 0 117 0;
#X connect 73 0 117 0;
#X connect 74 0 75 0;
#X connect 75 0 76 0;
#X connect 76 0 72 0;
#X connect 78 0 79 0;
#X connect 78 0 85 0;
#X connect 79 0 80 0;
#X connect 80 0 81 0;
#X connect 81 0 82 0;
#X connect 81 0 115 0;
#X connect 81 0 120 0;
#X connect 82 0 84 0;
#X connect 83 0 116 0;
#X connect 84 0 113 0;
#X connect 85 0 94 0;
#X connect 85 0 112 0;
#X connect 87 0 90 0;
#X connect 88 0 89 0;
#X connect 89 0 92 0;
#X connect 90 0 91 0;
#X connect 91 0 94 1;
#X connect 92 0 93 0;
#X connect 93 0 114 0;
#X connect 94 0 93 0;
#X connect 95 0 96 0;
#X connect 97 0 109 0;
#X connect 97 0 110 0;
#X connect 98 0 102 0;
#X connect 98 0 102 1;
#X connect 99 0 103 0;
#X connect 100 0 104 0;
#X connect 101 0 105 0;
#X connect 102 0 109 0;
#X connect 102 1 110 0;
#X connect 103 0 106 0;
#X connect 104 0 107 0;
#X connect 105 0 108 0;
#X connect 106 0 102 0;
#X connect 107 0 102 0;
#X connect 108 0 102 0;
#X connect 109 0 111 0;
#X connect 110 0 111 1;
#X connect 112 0 114 0;
#X connect 113 0 95 0;
#X connect 114 0 113 1;
#X connect 115 0 83 0;
#X connect 116 0 84 0;
#X connect 117 0 60 1;
#X connect 118 0 119 0;
#X connect 119 0 84 0;
#X connect 120 0 118 0;
