#N canvas 273 278 450 300 12;
#X obj 141 39 osc~ 440;
#X obj 142 145 dac~;
#X obj 239 37 osc~ 442;
#X obj 141 91 *~ 0.2;
#X obj 239 90 *~ 0.2;
#X connect 0 0 3 0;
#X connect 2 0 4 0;
#X connect 3 0 1 0;
#X connect 4 0 1 1;
