#N canvas 0 28 1440 847 12;
#X obj 203 14 loadbang;
#X floatatom 204 94 5 0 0 0 - - - 0;
#X obj 168 136 metro;
#X obj 163 95 tgl 19 0 empty empty empty 0 -10 0 12 #fcfcfc #000000 #000000 0 1;
#X obj 106 137 sel 0;
#X obj 29 138 loadbang;
#X obj 103 186 bng 19 250 50 0 empty empty empty 0 -10 0 12 #fcfcfc #000000 #000000;
#X obj 160 191 bng 19 250 50 0 empty empty empty 0 -10 0 12 #fcfcfc #000000 #000000;
#X msg 103 225 -1;
#X obj 156 258 int 1;
#X obj 227 305 + 1;
#X obj 157 345 % 8;
#X obj 155 387 + 1;
#X floatatom 156 302 5 0 0 0 - - - 0;
#X floatatom 156 427 5 0 0 0 - - - 0;
#X obj 154 471 sel 1;
#X obj 202 473 sel 2;
#X obj 257 473 sel 3;
#X obj 343 475 sel 4;
#X obj 400 477 sel 5;
#X obj 451 480 sel 6;
#X obj 509 480 sel 7;
#X obj 562 480 sel 8;
#X obj 153 500 bng 19 250 50 0 empty empty empty 0 -10 0 12 #fcfcfc #000000 #000000;
#X obj 453 506 bng 19 250 50 0 empty empty empty 0 -10 0 12 #fcfcfc #000000 #000000;
#X obj 510 508 bng 19 250 50 0 empty empty empty 0 -10 0 12 #fcfcfc #000000 #000000;
#X obj 563 508 bng 19 250 50 0 empty empty empty 0 -10 0 12 #fcfcfc #000000 #000000;
#X obj 399 506 bng 19 250 50 0 empty empty empty 0 -10 0 12 #fcfcfc #000000 #000000;
#X obj 341 506 bng 19 250 50 0 empty empty empty 0 -10 0 12 #fcfcfc #000000 #000000;
#X obj 258 501 bng 19 250 50 0 empty empty empty 0 -10 0 12 #fcfcfc #000000 #000000;
#X obj 202 504 bng 19 250 50 0 empty empty empty 0 -10 0 12 #fcfcfc #000000 #000000;
#X obj 150 532 s one;
#X obj 202 532 s two;
#X obj 256 532 s three;
#X obj 324 531 s four;
#X obj 391 535 s five;
#X obj 448 532 s six;
#X obj 507 531 s seven;
#X obj 573 535 s eight;
#X obj 236 595 receive two;
#X obj 143 593 receive one;
#X obj 330 593 receive three;
#X obj 431 596 receive four;
#X obj 539 598 receive five;
#X obj 643 601 receive six;
#X obj 740 600 receive seven;
#X obj 858 600 receive eight;
#X obj 858 633 bng 19 250 50 0 empty empty empty 0 -10 0 12 #fcfcfc #000000 #000000;
#X obj 894 634 tgl 19 0 empty empty empty 0 -10 0 12 #fcfcfc #000000 #000000 0 1;
#X obj 854 670 spigot;
#X obj 853 701 bng 19 250 50 0 empty empty empty 0 -10 0 12 #fcfcfc #000000 #000000;
#X obj 740 635 bng 19 250 50 0 empty empty empty 0 -10 0 12 #fcfcfc #000000 #000000;
#X obj 776 636 tgl 19 0 empty empty empty 0 -10 0 12 #fcfcfc #000000 #000000 0 1;
#X obj 736 672 spigot;
#X obj 735 703 bng 19 250 50 0 empty empty empty 0 -10 0 12 #fcfcfc #000000 #000000;
#X obj 644 643 bng 19 250 50 0 empty empty empty 0 -10 0 12 #fcfcfc #000000 #000000;
#X obj 680 644 tgl 19 0 empty empty empty 0 -10 0 12 #fcfcfc #000000 #000000 0 1;
#X obj 640 680 spigot;
#X obj 639 711 bng 19 250 50 0 empty empty empty 0 -10 0 12 #fcfcfc #000000 #000000;
#X obj 544 641 bng 19 250 50 0 empty empty empty 0 -10 0 12 #fcfcfc #000000 #000000;
#X obj 580 642 tgl 19 0 empty empty empty 0 -10 0 12 #fcfcfc #000000 #000000 0 1;
#X obj 540 678 spigot;
#X obj 539 709 bng 19 250 50 0 empty empty empty 0 -10 0 12 #fcfcfc #000000 #000000;
#X obj 429 635 bng 19 250 50 0 empty empty empty 0 -10 0 12 #fcfcfc #000000 #000000;
#X obj 465 636 tgl 19 0 empty empty empty 0 -10 0 12 #fcfcfc #000000 #000000 0 1;
#X obj 425 672 spigot;
#X obj 424 703 bng 19 250 50 0 empty empty empty 0 -10 0 12 #fcfcfc #000000 #000000;
#X obj 328 631 bng 19 250 50 0 empty empty empty 0 -10 0 12 #fcfcfc #000000 #000000;
#X obj 364 632 tgl 19 0 empty empty empty 0 -10 0 12 #fcfcfc #000000 #000000 0 1;
#X obj 324 668 spigot;
#X obj 323 699 bng 19 250 50 0 empty empty empty 0 -10 0 12 #fcfcfc #000000 #000000;
#X obj 234 634 bng 19 250 50 0 empty empty empty 0 -10 0 12 #fcfcfc #000000 #000000;
#X obj 270 635 tgl 19 0 empty empty empty 0 -10 0 12 #fcfcfc #000000 #000000 0 1;
#X obj 230 671 spigot;
#X obj 229 702 bng 19 250 50 0 empty empty empty 0 -10 0 12 #fcfcfc #000000 #000000;
#X obj 141 632 bng 19 250 50 0 empty empty empty 0 -10 0 12 #fcfcfc #000000 #000000;
#X obj 177 633 tgl 19 0 empty empty empty 0 -10 0 12 #fcfcfc #000000 #000000 0 1;
#X obj 137 669 spigot;
#X obj 136 700 bng 19 250 50 0 empty empty empty 0 -10 0 12 #fcfcfc #000000 #000000;
#X obj 515 772 send Kick;
#X obj 654 92 receive Kick;
#X obj 563 249 *~ 0.5;
#X obj 575 304 *~;
#X obj 653 157 bng 19 250 50 0 empty empty empty 0 -10 0 12 #fcfcfc #000000 #000000;
#X obj 757 201 bng 19 250 50 0 empty empty empty 0 -10 0 12 #fcfcfc #000000 #000000;
#X obj 849 265 bng 19 250 50 0 empty empty empty 0 -10 0 12 #fcfcfc #000000 #000000;
#X obj 581 434 dac~;
#X obj 665 271 line~;
#X msg 654 198 1 5;
#X obj 757 167 delay 5;
#X msg 755 236 0.5 30;
#X msg 851 295 0 40;
#X obj 845 228 delay 30;
#X obj 553 216 osc~;
#X floatatom 552 172 5 0 0 0 - - - 0;
#X obj 292 12 receive Kick;
#X obj 291 77 bng 19 250 50 0 empty empty empty 0 -10 0 12 #fcfcfc #000000 #000000;
#X obj 395 121 bng 19 250 50 0 empty empty empty 0 -10 0 12 #fcfcfc #000000 #000000;
#X obj 487 185 bng 19 250 50 0 empty empty empty 0 -10 0 12 #fcfcfc #000000 #000000;
#X obj 303 191 line~;
#X obj 483 148 delay 30;
#X obj 328 250 snapshot~;
#X obj 506 29 bng 19 250 50 0 empty empty empty 0 -10 0 12 #fcfcfc #000000 #000000;
#X msg 393 156 300 30;
#X msg 489 215 0 50;
#X obj 395 87 delay 4;
#X obj 579 388 clip~ -0.9 0.9;
#X obj 576 350 *~ 20;
#X msg 203 53 250;
#X msg 292 118 500 1;
#X obj 861 412 receive two;
#X obj 768 410 receive one;
#X obj 955 410 receive three;
#X obj 1056 413 receive four;
#X obj 1164 415 receive five;
#X obj 1268 418 receive six;
#X obj 1365 417 receive seven;
#X obj 1483 417 receive eight;
#X obj 1483 450 bng 19 250 50 0 empty empty empty 0 -10 0 12 #fcfcfc #000000 #000000;
#X obj 1519 451 tgl 19 0 empty empty empty 0 -10 0 12 #fcfcfc #000000 #000000 0 1;
#X obj 1479 487 spigot;
#X obj 1478 518 bng 19 250 50 0 empty empty empty 0 -10 0 12 #fcfcfc #000000 #000000;
#X obj 1365 452 bng 19 250 50 0 empty empty empty 0 -10 0 12 #fcfcfc #000000 #000000;
#X obj 1401 453 tgl 19 0 empty empty empty 0 -10 0 12 #fcfcfc #000000 #000000 0 1;
#X obj 1361 489 spigot;
#X obj 1360 520 bng 19 250 50 0 empty empty empty 0 -10 0 12 #fcfcfc #000000 #000000;
#X obj 1269 460 bng 19 250 50 0 empty empty empty 0 -10 0 12 #fcfcfc #000000 #000000;
#X obj 1305 461 tgl 19 0 empty empty empty 0 -10 0 12 #fcfcfc #000000 #000000 0 1;
#X obj 1265 497 spigot;
#X obj 1264 528 bng 19 250 50 0 empty empty empty 0 -10 0 12 #fcfcfc #000000 #000000;
#X obj 1169 458 bng 19 250 50 0 empty empty empty 0 -10 0 12 #fcfcfc #000000 #000000;
#X obj 1205 459 tgl 19 0 empty empty empty 0 -10 0 12 #fcfcfc #000000 #000000 0 1;
#X obj 1165 495 spigot;
#X obj 1164 526 bng 19 250 50 0 empty empty empty 0 -10 0 12 #fcfcfc #000000 #000000;
#X obj 1054 452 bng 19 250 50 0 empty empty empty 0 -10 0 12 #fcfcfc #000000 #000000;
#X obj 1090 453 tgl 19 0 empty empty empty 0 -10 0 12 #fcfcfc #000000 #000000 0 1;
#X obj 1050 489 spigot;
#X obj 1049 520 bng 19 250 50 0 empty empty empty 0 -10 0 12 #fcfcfc #000000 #000000;
#X obj 953 448 bng 19 250 50 0 empty empty empty 0 -10 0 12 #fcfcfc #000000 #000000;
#X obj 989 449 tgl 19 0 empty empty empty 0 -10 0 12 #fcfcfc #000000 #000000 0 1;
#X obj 949 485 spigot;
#X obj 948 516 bng 19 250 50 0 empty empty empty 0 -10 0 12 #fcfcfc #000000 #000000;
#X obj 859 451 bng 19 250 50 0 empty empty empty 0 -10 0 12 #fcfcfc #000000 #000000;
#X obj 895 452 tgl 19 0 empty empty empty 0 -10 0 12 #fcfcfc #000000 #000000 0 1;
#X obj 855 488 spigot;
#X obj 854 519 bng 19 250 50 0 empty empty empty 0 -10 0 12 #fcfcfc #000000 #000000;
#X obj 766 449 bng 19 250 50 0 empty empty empty 0 -10 0 12 #fcfcfc #000000 #000000;
#X obj 802 450 tgl 19 0 empty empty empty 0 -10 0 12 #fcfcfc #000000 #000000 0 1;
#X obj 762 486 spigot;
#X obj 761 517 bng 19 250 50 0 empty empty empty 0 -10 0 12 #fcfcfc #000000 #000000;
#X obj 1140 589 send Snare;
#X obj 1065 185 *~ 0.5;
#X obj 1077 240 *~;
#X obj 1155 93 bng 19 250 50 0 empty empty empty 0 -10 0 12 #fcfcfc #000000 #000000;
#X obj 1259 137 bng 19 250 50 0 empty empty empty 0 -10 0 12 #fcfcfc #000000 #000000;
#X obj 1351 201 bng 19 250 50 0 empty empty empty 0 -10 0 12 #fcfcfc #000000 #000000;
#X obj 1083 370 dac~;
#X obj 1167 207 line~;
#X msg 1156 134 1 5;
#X obj 1259 103 delay 5;
#X msg 1353 231 0 40;
#X obj 1347 164 delay 30;
#X obj 1081 324 clip~ -0.9 0.9;
#X obj 1156 28 receive Snare;
#X obj 1050 140 noise~;
#X obj 1081 299 lop~;
#X floatatom 1152 265 5 0 0 0 - - - 0;
#X msg 1257 172 0.5 20;
#X obj 1063 264 *~ 0.5;
#X connect 0 0 108 0;
#X connect 1 0 2 1;
#X connect 2 0 7 0;
#X connect 3 0 4 0;
#X connect 3 0 2 0;
#X connect 4 0 6 0;
#X connect 5 0 6 0;
#X connect 6 0 8 0;
#X connect 7 0 9 0;
#X connect 8 0 9 0;
#X connect 9 0 10 0;
#X connect 9 0 13 0;
#X connect 10 0 9 1;
#X connect 11 0 12 0;
#X connect 12 0 14 0;
#X connect 13 0 11 0;
#X connect 14 0 15 0;
#X connect 14 0 16 0;
#X connect 14 0 17 0;
#X connect 14 0 18 0;
#X connect 14 0 19 0;
#X connect 14 0 20 0;
#X connect 14 0 21 0;
#X connect 14 0 22 0;
#X connect 15 0 23 0;
#X connect 16 0 30 0;
#X connect 17 0 29 0;
#X connect 18 0 28 0;
#X connect 19 0 27 0;
#X connect 20 0 24 0;
#X connect 21 0 25 0;
#X connect 22 0 26 0;
#X connect 23 0 31 0;
#X connect 24 0 36 0;
#X connect 25 0 37 0;
#X connect 26 0 38 0;
#X connect 27 0 35 0;
#X connect 28 0 34 0;
#X connect 29 0 33 0;
#X connect 30 0 32 0;
#X connect 39 0 71 0;
#X connect 40 0 75 0;
#X connect 41 0 67 0;
#X connect 42 0 63 0;
#X connect 43 0 59 0;
#X connect 44 0 55 0;
#X connect 45 0 51 0;
#X connect 46 0 47 0;
#X connect 47 0 49 0;
#X connect 48 0 49 1;
#X connect 49 0 50 0;
#X connect 50 0 79 0;
#X connect 51 0 53 0;
#X connect 52 0 53 1;
#X connect 53 0 54 0;
#X connect 54 0 79 0;
#X connect 55 0 57 0;
#X connect 56 0 57 1;
#X connect 57 0 58 0;
#X connect 58 0 79 0;
#X connect 59 0 61 0;
#X connect 60 0 61 1;
#X connect 61 0 62 0;
#X connect 62 0 79 0;
#X connect 63 0 65 0;
#X connect 64 0 65 1;
#X connect 65 0 66 0;
#X connect 66 0 79 0;
#X connect 67 0 69 0;
#X connect 68 0 69 1;
#X connect 69 0 70 0;
#X connect 70 0 79 0;
#X connect 71 0 73 0;
#X connect 72 0 73 1;
#X connect 73 0 74 0;
#X connect 74 0 79 0;
#X connect 75 0 77 0;
#X connect 76 0 77 1;
#X connect 77 0 78 0;
#X connect 78 0 79 0;
#X connect 80 0 83 0;
#X connect 81 0 82 0;
#X connect 82 0 107 0;
#X connect 83 0 88 0;
#X connect 83 0 89 0;
#X connect 84 0 90 0;
#X connect 84 0 92 0;
#X connect 85 0 91 0;
#X connect 87 0 82 1;
#X connect 88 0 87 0;
#X connect 89 0 84 0;
#X connect 90 0 87 0;
#X connect 91 0 87 0;
#X connect 92 0 85 0;
#X connect 93 0 81 0;
#X connect 94 0 93 0;
#X connect 95 0 96 0;
#X connect 96 0 109 0;
#X connect 96 0 105 0;
#X connect 97 0 103 0;
#X connect 97 0 100 0;
#X connect 98 0 104 0;
#X connect 99 0 101 0;
#X connect 100 0 98 0;
#X connect 101 0 94 0;
#X connect 102 0 96 0;
#X connect 102 0 83 0;
#X connect 103 0 99 0;
#X connect 104 0 99 0;
#X connect 105 0 97 0;
#X connect 106 0 86 0;
#X connect 106 0 86 1;
#X connect 107 0 106 0;
#X connect 108 0 1 0;
#X connect 109 0 99 0;
#X connect 110 0 142 0;
#X connect 111 0 146 0;
#X connect 112 0 138 0;
#X connect 113 0 134 0;
#X connect 114 0 130 0;
#X connect 115 0 126 0;
#X connect 116 0 122 0;
#X connect 117 0 118 0;
#X connect 118 0 120 0;
#X connect 119 0 120 1;
#X connect 120 0 121 0;
#X connect 121 0 150 0;
#X connect 122 0 124 0;
#X connect 123 0 124 1;
#X connect 124 0 125 0;
#X connect 125 0 150 0;
#X connect 126 0 128 0;
#X connect 127 0 128 1;
#X connect 128 0 129 0;
#X connect 129 0 150 0;
#X connect 130 0 132 0;
#X connect 131 0 132 1;
#X connect 132 0 133 0;
#X connect 133 0 150 0;
#X connect 134 0 136 0;
#X connect 135 0 136 1;
#X connect 136 0 137 0;
#X connect 137 0 150 0;
#X connect 138 0 140 0;
#X connect 139 0 140 1;
#X connect 140 0 141 0;
#X connect 141 0 150 0;
#X connect 142 0 144 0;
#X connect 143 0 144 1;
#X connect 144 0 145 0;
#X connect 145 0 150 0;
#X connect 146 0 148 0;
#X connect 147 0 148 1;
#X connect 148 0 149 0;
#X connect 149 0 150 0;
#X connect 151 0 152 0;
#X connect 152 0 168 0;
#X connect 153 0 158 0;
#X connect 153 0 159 0;
#X connect 154 0 167 0;
#X connect 154 0 161 0;
#X connect 155 0 160 0;
#X connect 157 0 152 1;
#X connect 158 0 157 0;
#X connect 159 0 154 0;
#X connect 160 0 157 0;
#X connect 161 0 155 0;
#X connect 162 0 156 0;
#X connect 162 0 156 1;
#X connect 163 0 153 0;
#X connect 164 0 151 0;
#X connect 165 0 162 0;
#X connect 166 0 165 1;
#X connect 167 0 157 0;
#X connect 168 0 165 0;
